# xmcd
#
# Track frame offsets: 
#        150
#        13852
#        33514
#        57962
#        75071
#        97438
#        115467
#        133227
#        155396
#        175157
#        197115
#        212840
#
# Disc length: 3042 seconds
#
# Revision: 0
# Processed by: cddbd v1.5.2PL0 Copyright (c) Steve Scherf et al.
# Submitted via: ExactAudioCopy v0.99pb5
#
DISCID=a70be00c
DTITLE=Various Artist - Hit Song - Sao Mai Diem Hen
DYEAR=2004
DGENRE=Viet Nam
TTITLE0=Kasim Hoang Vu - Vi Yeu
TTITLE1=Nguyen Phuong Anh - Dong Song Khong Tro Lai
TTITLE2=Pham Ngoc Khue - Chuon Chuon Ot
TTITLE3=Thai Thuy Linh - Trong Vong Tay Co Don
TTITLE4=Nguyen Hong Nhung - Yeu Dau Da Ve
TTITLE5=Nguyen Tung Duong - Guitar Cho Ta
TTITLE6=Nguyen My Dung - Khi Giac Mo Ve
TTITLE7=Nguyen Hong Nhung - Choi Xanh
TTITLE8=Nguyen Ngoc Dung - Pho Mot Minh
TTITLE9=Dang Tran Vy Thao - Thu Hat Cho Nguoi
TTITLE10=Luu Huong Giang - Thu Tinh Yeu
TTITLE11=Hop Ca - Bay Tren Nhung Giac mo
EXTD=
EXTT0=
EXTT1=
EXTT2=
EXTT3=
EXTT4=
EXTT5=
EXTT6=
EXTT7=
EXTT8=
EXTT9=
EXTT10=
EXTT11=
PLAYORDER=
